<?xml version="1.0" standalone="no"?>
<!DOCTYPE svg PUBLIC "-//W3C//DTD SVG 20010904//EN"
 "http://www.w3.org/TR/2001/REC-SVG-20010904/DTD/svg10.dtd">
<svg version="1.0" xmlns="http://www.w3.org/2000/svg"
 width="561.000000pt" height="845.000000pt" viewBox="0 0 561.000000 845.000000"
 preserveAspectRatio="xMidYMid meet">

<g transform="translate(0.000000,845.000000) scale(0.100000,-0.100000)"
fill="#999999" stroke="none">
<path d="M2440 8429 c-984 -85 -1904 -658 -2264 -1409 -112 -233 -159 -426
-160 -660 -1 -177 11 -236 71 -360 52 -107 167 -220 283 -277 122 -61 236 -85
390 -85 239 0 401 62 545 207 95 96 167 212 283 460 91 192 158 317 210 390
230 321 554 460 1032 442 340 -13 590 -107 775 -292 179 -180 260 -393 258
-685 -1 -253 -89 -460 -294 -696 -124 -143 -267 -267 -654 -566 -330 -256
-420 -332 -566 -477 -250 -250 -391 -484 -460 -761 -20 -81 -23 -121 -24 -270
l0 -175 36 -102 c48 -137 89 -202 184 -298 91 -92 175 -141 300 -177 67 -19
103 -22 225 -22 243 1 399 54 524 179 77 78 130 170 206 365 183 466 220 510
800 923 435 310 624 461 821 657 312 311 506 630 593 978 42 168 51 246 50
462 0 222 -15 351 -61 540 -171 704 -698 1230 -1512 1511 -462 159 -1108 240
-1591 198z"/>
<path d="M2505 1860 c-160 -24 -333 -101 -460 -203 -147 -119 -267 -301 -317
-482 -32 -119 -32 -356 0 -475 108 -394 456 -674 866 -697 363 -20 722 191
889 522 143 286 120 651 -60 922 -81 123 -231 256 -363 323 -158 80 -381 116
-555 90z"/>
</g>
</svg>
